<?xml version="1.0" encoding="utf-8"?>
<!-- Generator: Adobe Illustrator 16.0.0, SVG Export Plug-In . SVG Version: 6.00 Build 0)  -->
<!DOCTYPE svg PUBLIC "-//W3C//DTD SVG 1.1//EN" "http://www.w3.org/Graphics/SVG/1.1/DTD/svg11.dtd">
<svg version="1.1" id="圖層_1" xmlns="http://www.w3.org/2000/svg" xmlns:xlink="http://www.w3.org/1999/xlink" x="0px" y="0px"
	 width="595.28px" height="841.89px" viewBox="0 0 595.28 841.89" enable-background="new 0 0 595.28 841.89" xml:space="preserve">
<g>
	<g>
		<path fill="#040000" d="M345,293.321v113.828l110,53.66V348.606L345,293.321z M445,445.932l-91-44.94v-74.022l19,8.985v6.081
			v6.699v3.458v7.435v6.185v2.722v1.253v13.616v2.725l13,8.297v-17.344v-2.722v-0.809v-5.627v-7.183v-0.809v-2.904v-6.446v-9.896v-1
			v-16.318l25,10.895v15.949v1.249v9.646v6.695v3.463v7.433v6.182v2.729v1.25v13.619v2.724l14,8.297v-2.728v-13.621v-0.998v-2.723
			v-6.438v-7.18v-3.711v-6.449v-8.55l20,8.984V445.932L445,445.932z"/>
		<path fill="#040000" d="M303,235.688v-16.395l-31,14.636v14.414l-37,18.493v78.36l37-19.052v20.555l31-14.204v-18.307l42-20.642
			v-77.895L303,235.688z M272,286.236v1.491v19.512l-20,9.904v-19.511v-1.192v-19.512l20-10.204V286.236z M321,264.964v19.512
			l-18,9.903v-19.511v-1.193v-19.513l18-10.203v19.513V264.964z"/>
		<polygon fill="#040000" points="235,351.936 235,388.277 272,408.396 272,430.244 303,439.01 303,419.219 344,440.594 
			344,407.223 		"/>
		<polygon fill="#040000" points="272,326.376 272,336.793 272,340.789 272,359.17 272,378.681 272,380.174 272,399.688 
			272,418.592 272,429.668 272,439.148 303,424.941 303,418.523 303,406.635 303,386.826 303,367.313 303,366.121 303,346.606 
			303,328.132 303,321.934 303,311.74 		"/>
		<path fill="#040000" d="M396.176,478.375"/>
		<polygon fill="#040000" points="288.645,412.018 289.211,412.018 273.588,405.955 235,429.775 235,464.342 286.824,434.313 		"/>
		<polygon fill="#040000" points="235,610.465 217,603.037 217,588.176 235,595.605 		"/>
		<polygon fill="#040000" points="218,567.121 203,559.693 203,544.834 218,552.266 		"/>
		<polygon fill="#040000" points="480,378.897 465,371.467 465,356.606 480,364.039 		"/>
		<polygon fill="#040000" points="467,335.557 450,328.126 450,313.267 467,320.694 		"/>
		<g>
			<polygon fill="#040000" points="385,474.371 366,483.188 366,462.023 387,451.447 387,451.594 408,442.775 408,463.939 
				385,474.52 			"/>
			<polygon fill="#040000" points="361,520.338 361,498.92 381,488.213 381,488.285 394,482.402 394,482.553 415,473.734 
				415,494.898 396,503.127 396,508.408 396,517.768 396,525.287 396,526.436 396,543.219 396,543.314 396,561.246 377,570.26 
				377,552.328 377,552.23 377,535.449 377,534.301 377,526.781 377,517.418 377,512.01 			"/>
			<polygon fill="#040000" points="371,526.756 371,536.664 371,537.338 371,547.246 359,552.535 359,542.629 359,541.955 
				359,532.047 			"/>
			<polygon fill="#040000" points="415,518.09 415,518.764 415,528.67 404,533.959 404,524.053 404,523.379 404,513.473 
				415,508.184 			"/>
		</g>
		<g>
			<polygon fill="#040000" points="260,537.834 262,539.664 262,531.441 260,529.629 			"/>
			<path fill="#040000" d="M235,464.623v113.826l55,27.131v-8.504v-39.578V541.35v-1.188v-47.584L235,464.623z M287,570.705v0.721
				v6.492v2.539v0.256l-20-9.064v3.355v2.553v0.063v11.146l-15-6.879v-11.146v-0.552v-2.063v-3.879l-16-9.068v-0.531v-0.555v-9.182
				l-0.433,0.039l-0.514-0.172l16.943,9.154v-2.039v-6.06v-0.715l-14-6.047v-0.523v-0.561v-9.181l1.664,0.039l0.395-0.17
				l7.941,4.271v-8.158l-4-1.813v-0.088l-7-3.629v-0.527v-0.557v-9.182l0.928,0.041l0.547-0.172l15.525,7.934v-4.398v-4.662v-0.151
				v-3.847l-6-2.413v-0.054l-1-1.205v-9.646l7,3.613v-0.214v-1.719v-8.317v-2.347l13,6.883v3.056v8.319v0.601l9,3.621v9.666
				l-9-3.623v0.649v0.496v3.354v0.646v4.174v4.844l10,4.271v0.053l9,3.662v0.209v0.721v6.49v2.539v0.256l-14-6.047v8.27l9,3.662
				v0.207v0.723v6.492v2.535v0.258l-14-6.045v0.34v6.547v1.99l6,3.053v0.09l14,6.103L287,570.705L287,570.705z"/>
		</g>
		<path fill="#040000" d="M331,470.996v0.061l-10,5.43v0.091l-16,8.146v0.088l-15,8.146v2.746v15.098v0.873v2.744v5.99v9.109v7.356
			v2.246v14.227v2.246v11.479v4.992v11.479v2.248v0.498v15.973v2.748l16-9.096v-2.746v-15.699v-0.77v-1.978v-11.747v-4.728v-2.681
			l4.563-2.102l14.521,15.465l-10.618,27.84l14.33-6.801l4.499-12.371l3.779,4.074l13.731-6.801l-11.863-12.859l7.751-21.451
			l-12.923,6.396l-2.563,6.662l-6.397-7.018l4.189-2.099v0.104l18-9.092v-18.449l-18,8.824v0.062l-9,5.43v0.015l-5,1.358v0.063
			l-9,4.07v-6.861v-1.978v-7.633v-8.84v-6.257v-2.588l15-7.692v0.155l10-5.596v0.104v1.373v7.358v3.617v4.121v10.979l20-9.09
			v-10.979v-4.121v-3.35v-7.631v-1.371v-1.979v-4.119v-10.97v-1.373L331,470.996z M315,551.375v0.039l-4.098,2.047L315,551.375z"/>
		<polygon fill="#040000" points="301.029,418.523 329.511,456.664 284.104,440.594 273.785,432.975 289.211,408.205 		"/>
		<polygon fill="#040000" points="474,589.961 455,581.732 455,576.998 455,573.975 455,564.615 455,557.098 455,555.947 
			455,543.529 467,548.82 467,527.656 461,524.131 461,523.941 455,522.178 455,521.137 455,506.969 455,506.871 455,488.939 
			439,479.924 439,497.861 439,497.955 439,512.123 439,513.049 425,507.17 425,528.334 439,534.209 439,534.523 439,546.934 
			439,548.084 439,555.604 439,564.961 439,567.988 439,572.102 420,563.285 420,583.223 420,584.449 420,584.531 451.53,600.273 
			451.53,600.273 470.11,609.525 469.967,609.533 473.238,611.174 473.602,611.119 474,611.125 		"/>
	</g>
	<polygon fill="#040000" points="266.067,323.018 248,329.847 248,323.018 247,323.018 247,265.018 256.084,265.018 272,257.54 
		272,248.345 133,313.267 133,320.694 235,275.424 235,283.756 133,330.293 133,337.723 235,292.455 235,300.785 133,347.319 
		133,354.75 235,309.48 235,319.049 133,365.585 133,373.016 235,327.745 235,335.018 234.041,335.018 133,383.852 133,391.279 
		272,328.126 272,323.018 	"/>
	<g>
		<polygon fill="#040000" points="133,408.615 235,363.348 235,354.649 133,401.189 		"/>
		<polygon fill="#040000" points="133,460.938 235,415.666 235,406.971 133,453.506 		"/>
		<polygon fill="#040000" points="235,388.705 133,435.242 133,442.67 235,397.4 		"/>
		<polygon fill="#040000" points="235,425.234 133,471.773 133,479.203 235,433.932 		"/>
		<polygon fill="#040000" points="133,425.646 235,380.373 235,371.676 133,418.215 		"/>
	</g>
	<g>
		<polygon fill="#040000" points="133,492.826 235,447.557 235,438.857 133,485.396 		"/>
		<polygon fill="#040000" points="133,545.146 235,499.873 235,491.176 133,537.711 		"/>
		<polygon fill="#040000" points="235,472.91 133,519.449 133,526.879 235,481.607 		"/>
		<polygon fill="#040000" points="235,509.441 133,555.98 133,563.41 235,518.139 		"/>
		<polygon fill="#040000" points="133,509.852 235,464.58 235,455.885 133,502.422 		"/>
	</g>
	<polygon fill="#040000" points="339.532,465.367 318.512,475.063 276.415,441.789 298.327,423.141 	"/>
</g>
</svg>
