<?xml version="1.0" encoding="utf-8"?>
<!-- Generator: Adobe Illustrator 16.0.0, SVG Export Plug-In . SVG Version: 6.00 Build 0)  -->
<!DOCTYPE svg PUBLIC "-//W3C//DTD SVG 1.1//EN" "http://www.w3.org/Graphics/SVG/1.1/DTD/svg11.dtd">
<svg version="1.1" id="圖層_1" xmlns="http://www.w3.org/2000/svg" xmlns:xlink="http://www.w3.org/1999/xlink" x="0px" y="0px"
	 width="347.001px" height="411.993px" viewBox="0 429.897 347.001 411.993" enable-background="new 0 429.897 347.001 411.993"
	 xml:space="preserve">
<g>
	<g>
		<path fill="#FFFFFF" d="M212.001,507.567v113.825l110,53.66v-112.2L212.001,507.567z M312.001,660.175l-91-44.939v-74.02l19,8.983
			v6.082v6.698v3.458v7.437v6.185v2.722v1.254v13.615v2.723l13,8.297v-17.344v-2.722v-0.81v-5.627v-7.184v-0.809v-2.904v-6.446
			v-9.896v-1v-16.317l25,10.896v15.949v1.248v9.646v6.694v3.463v7.434v6.184v2.727v1.25v13.619v2.723l14,8.299v-2.729v-13.621v-1
			v-2.721v-6.439v-7.18v-3.711v-6.448v-8.55l20,8.982V660.175z"/>
		<path fill="#FFFFFF" d="M170.001,449.931v-16.393l-31,14.637v14.414l-37,18.494v78.358l37-19.052v20.556l31-14.205v-18.307
			l42-20.644v-77.894L170.001,449.931z M139.001,500.482v1.49v19.513l-20,9.903v-19.512v-1.191v-19.512l20-10.203V500.482z
			 M188.001,479.21v19.512l-18,9.902v-19.513v-1.192v-19.513l18-10.202v19.512V479.21z"/>
		<polygon fill="#FFFFFF" points="102.001,566.179 102.001,602.523 139.001,622.642 139.001,644.488 170.001,653.255 
			170.001,633.464 211.001,654.839 211.001,621.466 		"/>
		<polygon fill="#FFFFFF" points="139.001,540.621 139.001,551.039 139.001,555.034 139.001,573.417 139.001,592.925 
			139.001,594.419 139.001,613.931 139.001,632.835 139.001,643.912 139.001,653.392 170.001,639.185 170.001,632.767 
			170.001,620.88 170.001,601.07 170.001,581.556 170.001,580.366 170.001,560.851 170.001,542.378 170.001,536.179 
			170.001,525.985 		"/>
		<path fill="#FFFFFF" d="M263.175,692.619"/>
		<polygon fill="#FFFFFF" points="155.648,626.263 156.212,626.263 140.589,620.199 102.001,644.019 102.001,678.585 
			153.825,648.556 		"/>
		<polygon fill="#FFFFFF" points="102.001,824.708 84.001,817.281 84.001,802.421 102.001,809.849 		"/>
		<polygon fill="#FFFFFF" points="85.001,781.365 70.001,773.937 70.001,759.078 85.001,766.509 		"/>
		<polygon fill="#FFFFFF" points="347.001,593.142 332.001,585.712 332.001,570.85 347.001,578.284 		"/>
		<polygon fill="#FFFFFF" points="334.001,549.802 317.001,542.373 317.001,527.511 334.001,534.94 		"/>
		<g>
			<polygon fill="#FFFFFF" points="252.001,688.615 233.001,697.431 233.001,676.269 254.001,665.693 254.001,665.839 
				275.001,657.019 275.001,678.183 252.001,688.763 			"/>
			<polygon fill="#FFFFFF" points="228.001,734.583 228.001,713.164 248.001,702.457 248.001,702.529 261.001,696.648 
				261.001,696.798 282.001,687.98 282.001,709.144 263.001,717.371 263.001,722.652 263.001,732.013 263.001,739.531 
				263.001,740.679 263.001,757.464 263.001,757.56 263.001,775.49 244.001,784.505 244.001,766.572 244.001,766.476 
				244.001,749.693 244.001,748.546 244.001,741.027 244.001,731.662 244.001,726.255 			"/>
			<polygon fill="#FFFFFF" points="238.001,741.001 238.001,750.908 238.001,751.583 238.001,761.49 226.001,766.779 
				226.001,756.873 226.001,756.199 226.001,746.291 			"/>
			<polygon fill="#FFFFFF" points="282.001,732.335 282.001,733.007 282.001,742.914 271.001,748.203 271.001,738.298 
				271.001,737.623 271.001,727.718 282.001,722.429 			"/>
		</g>
		<g>
			<polygon fill="#FFFFFF" points="127.001,752.078 129.001,753.908 129.001,745.685 127.001,743.873 			"/>
			<path fill="#FFFFFF" d="M102.001,678.867v113.826l55,27.131v-8.504v-39.578v-16.146v-1.188v-47.584L102.001,678.867z
				 M154.001,784.949v0.723v6.49v2.539v0.256l-20-9.064v3.355v2.555v0.064v11.145l-15-6.877v-11.146v-0.551v-2.063v-3.879l-16-9.068
				v-0.529v-0.555v-9.184l-0.432,0.039l-0.513-0.172l16.941,9.154v-2.039v-6.061v-0.715l-14-6.047v-0.521v-0.563v-9.182l1.664,0.041
				l0.396-0.172l7.938,4.27v-8.156l-4-1.814v-0.09l-7-3.627v-0.529v-0.555v-9.184l0.928,0.041l0.55-0.172l15.522,7.936v-4.398
				v-4.662v-0.15v-3.85l-6-2.414v-0.051l-1-1.205v-9.645l7,3.615v-0.215v-1.721v-8.318v-2.346l13,6.885v3.057v8.318v0.6l9,3.623
				v9.664l-9-3.621v0.646v0.496v3.355v0.645v4.178v4.842l10,4.271v0.053l9,3.662v0.209v0.719v6.492v2.539v0.254l-14-6.045v8.27
				l9,3.662v0.207v0.723v6.49v2.535v0.26l-14-6.047v0.342v6.547v1.99l6,3.053v0.09l14,6.105L154.001,784.949L154.001,784.949z"/>
		</g>
		<path fill="#FFFFFF" d="M198.001,685.24v0.061l-10,5.434v0.09l-16,8.145v0.086l-15,8.146v2.746v15.1v0.873v2.742v5.99v9.111v7.355
			v2.246v14.229v2.246v11.479v4.992v11.479v2.248v0.498v15.973v2.746l16-9.094v-2.746v-15.699v-0.77v-1.979v-11.748v-4.727v-2.68
			l4.564-2.102l14.52,15.465l-10.617,27.838l14.328-6.799l4.5-12.373l3.779,4.074l13.732-6.801l-11.863-12.859l7.75-21.451
			l-12.922,6.396l-2.564,6.662l-6.395-7.018l4.188-2.1v0.105l18-9.092v-18.447l-18,8.822v0.064l-9,5.432v0.014l-5,1.357v0.063
			l-9,4.07v-6.861v-1.977v-7.635v-8.84v-6.256v-2.588l15-7.693v0.156l10-5.596v0.104v1.373v7.359v3.617v4.121v10.979l20-9.09V711.33
			v-4.121v-3.352v-7.631v-1.371v-1.979v-4.119v-10.979v-1.373L198.001,685.24z M182.001,765.619v0.039l-4.098,2.047L182.001,765.619
			z"/>
		<polygon fill="#FFFFFF" points="168.031,632.767 196.513,670.908 151.107,654.839 140.787,647.218 156.212,622.449 		"/>
		<polygon fill="#FFFFFF" points="341.001,804.205 322.001,795.978 322.001,791.242 322.001,788.22 322.001,778.859 
			322.001,771.343 322.001,770.193 322.001,757.773 334.001,763.064 334.001,741.902 328.001,738.375 328.001,738.185 
			322.001,736.423 322.001,735.382 322.001,721.214 322.001,721.115 322.001,703.185 306.001,694.169 306.001,712.105 
			306.001,712.199 306.001,726.367 306.001,727.292 292.001,721.414 292.001,742.578 306.001,748.453 306.001,748.769 
			306.001,761.179 306.001,762.328 306.001,769.847 306.001,779.205 306.001,782.234 306.001,786.345 287.001,777.529 
			287.001,797.468 287.001,798.693 287.001,798.777 318.532,814.517 318.532,814.517 337.113,823.771 336.968,823.777 
			340.24,825.417 340.605,825.363 341.001,825.369 		"/>
	</g>
	<polygon fill="#FFFFFF" points="133.07,537.263 115.001,544.091 115.001,537.263 114.001,537.263 114.001,479.263 123.085,479.263 
		139.001,471.785 139.001,462.591 0.001,527.511 0.001,534.94 102.001,489.669 102.001,498.001 0.001,544.539 0.001,551.968 
		102.001,506.7 102.001,515.03 0.001,561.565 0.001,568.996 102.001,523.724 102.001,533.294 0.001,579.83 0.001,587.261 
		102.001,541.989 102.001,549.263 101.042,549.263 0.001,598.095 0.001,605.525 139.001,542.373 139.001,537.263 	"/>
	<g>
		<polygon fill="#FFFFFF" points="0.001,622.861 102.001,577.593 102.001,568.895 0.001,615.433 		"/>
		<polygon fill="#FFFFFF" points="0.001,675.181 102.001,629.91 102.001,621.216 0.001,667.751 		"/>
		<polygon fill="#FFFFFF" points="102.001,602.949 0.001,649.486 0.001,656.914 102.001,611.646 		"/>
		<polygon fill="#FFFFFF" points="102.001,639.478 0.001,686.017 0.001,693.447 102.001,648.177 		"/>
		<polygon fill="#FFFFFF" points="0.001,639.89 102.001,594.618 102.001,585.921 0.001,632.46 		"/>
	</g>
	<g>
		<polygon fill="#FFFFFF" points="0.001,707.07 102.001,661.8 102.001,653.103 0.001,699.64 		"/>
		<polygon fill="#FFFFFF" points="0.001,759.39 102.001,714.117 102.001,705.419 0.001,751.955 		"/>
		<polygon fill="#FFFFFF" points="102.001,687.154 0.001,733.693 0.001,741.123 102.001,695.851 		"/>
		<polygon fill="#FFFFFF" points="102.001,723.687 0.001,770.224 0.001,777.654 102.001,732.382 		"/>
		<polygon fill="#FFFFFF" points="0.001,724.095 102.001,678.824 102.001,670.13 0.001,716.667 		"/>
	</g>
	<polygon fill="#FFFFFF" points="206.534,679.611 185.513,689.306 143.417,656.033 165.329,637.384 	"/>
</g>
</svg>
