<?xml version="1.0" encoding="utf-8"?>
<!-- Generator: Adobe Illustrator 16.0.0, SVG Export Plug-In . SVG Version: 6.00 Build 0)  -->
<!DOCTYPE svg PUBLIC "-//W3C//DTD SVG 1.1//EN" "http://www.w3.org/Graphics/SVG/1.1/DTD/svg11.dtd">
<svg version="1.1" id="圖層_1" xmlns="http://www.w3.org/2000/svg" xmlns:xlink="http://www.w3.org/1999/xlink" x="0px" y="0px"
	 width="400px" height="400px" viewBox="0 0 400 400" enable-background="new 0 0 400 400" xml:space="preserve">
<g>
	<g>
		<path d="M-282.989,109.778v113.827l110,53.66V165.063L-282.989,109.778z M-182.989,262.389l-91-44.941v-74.022l19,8.985v6.081
			v6.699v3.458v7.435v6.185v2.722v1.253v13.616v2.725l13,8.297v-17.344v-2.722v-0.809v-5.627v-7.183v-0.809v-2.904v-6.446v-9.896v-1
			v-16.318l25,10.895v15.949v1.249v9.646v6.695v3.463v7.433v6.182v2.729v1.25v13.619v2.723l14,8.297v-2.727v-13.621v-0.998v-2.723
			v-6.438v-7.18v-3.711v-6.449v-8.55l20,8.984V262.389z"/>
		<path d="M-324.989,52.145V35.75l-31,14.636V64.8l-37,18.493v78.36l37-19.052v20.555l31-14.204v-18.307l42-20.642V32.108
			L-324.989,52.145z M-355.989,102.693v1.491v19.512l-20,9.904v-19.511v-1.192V93.385l20-10.204V102.693z M-306.989,81.421v19.512
			l-18,9.903V91.325v-1.193V70.619l18-10.203v19.513V81.421z"/>
		<polygon points="-392.989,168.393 -392.989,204.734 -355.989,224.854 -355.989,246.701 -324.989,255.467 -324.989,235.676 
			-283.989,257.051 -283.989,223.68 		"/>
		<polygon points="-355.989,142.833 -355.989,153.25 -355.989,157.246 -355.989,175.627 -355.989,195.138 -355.989,196.631 
			-355.989,216.145 -355.989,235.049 -355.989,246.125 -355.989,255.605 -324.989,241.398 -324.989,234.98 -324.989,223.092 
			-324.989,203.283 -324.989,183.77 -324.989,182.578 -324.989,163.063 -324.989,144.589 -324.989,138.391 -324.989,128.197 		"/>
		<path d="M-231.813,294.832"/>
		<polygon points="-339.344,228.475 -338.778,228.475 -354.401,222.412 -392.989,246.232 -392.989,280.799 -341.165,250.77 		"/>
		<polygon points="-392.989,426.922 -410.989,419.494 -410.989,404.633 -392.989,412.063 		"/>
		<polygon points="-409.989,383.578 -424.989,376.15 -424.989,361.291 -409.989,368.723 		"/>
		<polygon points="-147.989,195.354 -162.989,187.924 -162.989,173.063 -147.989,180.496 		"/>
		<polygon points="-160.989,152.014 -177.989,144.583 -177.989,129.724 -160.989,137.151 		"/>
		<g>
			<polygon points="-242.989,290.828 -261.989,299.645 -261.989,278.48 -240.989,267.904 -240.989,268.051 -219.989,259.232 
				-219.989,280.396 -242.989,290.977 			"/>
			<polygon points="-266.989,336.795 -266.989,315.377 -246.989,304.67 -246.989,304.742 -233.989,298.859 -233.989,299.01 
				-212.989,290.191 -212.989,311.355 -231.989,319.584 -231.989,324.865 -231.989,334.225 -231.989,341.744 -231.989,342.893 
				-231.989,359.676 -231.989,359.771 -231.989,377.703 -250.989,386.717 -250.989,368.785 -250.989,368.688 -250.989,351.906 
				-250.989,350.758 -250.989,343.238 -250.989,333.875 -250.989,328.467 			"/>
			<polygon points="-256.989,343.213 -256.989,353.121 -256.989,353.795 -256.989,363.703 -268.989,368.992 -268.989,359.086 
				-268.989,358.412 -268.989,348.504 			"/>
			<polygon points="-212.989,334.547 -212.989,335.221 -212.989,345.127 -223.989,350.416 -223.989,340.51 -223.989,339.836 
				-223.989,329.93 -212.989,324.641 			"/>
		</g>
		<g>
			<polygon points="-367.989,354.291 -365.989,356.121 -365.989,347.898 -367.989,346.086 			"/>
			<path d="M-392.989,281.08v113.826l55,27.131v-8.504v-39.578v-16.148v-1.188v-47.584L-392.989,281.08z M-340.989,387.162v0.721
				v6.492v2.539v0.256l-20-9.064v3.355v2.553v0.063v11.146l-15-6.879v-11.146v-0.551v-2.063v-3.879l-16-9.068v-0.531v-0.555v-9.182
				l-0.433,0.039l-0.513-0.172l16.943,9.154v-2.039v-6.059v-0.715l-14-6.047v-0.523v-0.561v-9.18l1.664,0.039l0.395-0.17l7.941,4.27
				v-8.158l-4-1.813v-0.088l-7-3.629v-0.527v-0.557v-9.182l0.928,0.041l0.547-0.172l15.525,7.934v-4.398v-4.662v-0.152v-3.846
				l-6-2.414v-0.053l-1-1.205v-9.646l7,3.613v-0.213v-1.719v-8.318v-2.346l13,6.883v3.055v8.32v0.6l9,3.621v9.666l-9-3.623v0.65
				v0.496v3.354v0.645v4.174v4.844l10,4.271v0.053l9,3.662v0.209v0.721v6.49v2.539v0.256l-14-6.047v8.27l9,3.662v0.207v0.723v6.492
				v2.535v0.258l-14-6.045v0.34v6.547v1.99l6,3.053v0.09l14,6.102L-340.989,387.162L-340.989,387.162z"/>
		</g>
		<path d="M-296.989,287.453v0.061l-10,5.43v0.09l-16,8.146v0.088l-15,8.146v2.746v15.098v0.873v2.744v5.99v9.109v7.357v2.246
			v14.227v2.246v11.479v4.992V400v2.248v0.498v15.973v2.748l16-9.096v-2.746v-15.699v-0.77v-1.977v-11.748v-4.727v-2.68l4.563-2.102
			l14.521,15.465l-10.618,27.84l14.33-6.801l4.499-12.371l3.779,4.074l13.732-6.801l-11.864-12.859l7.751-21.451l-12.922,6.396
			l-2.563,6.662l-6.397-7.018l4.189-2.098v0.105l18-9.092v-18.449l-18,8.824v0.061l-9,5.43v0.014l-5,1.359v0.063l-9,4.07v-6.861
			v-1.977v-7.633v-8.84v-6.256v-2.588l15-7.693v0.156l10-5.596v0.104v1.373v7.359v3.617v4.121v10.979l20-9.09v-10.979v-4.121v-3.35
			v-7.631v-1.371v-1.979v-4.119V280v-1.373L-296.989,287.453z M-312.989,367.832v0.039l-4.098,2.047L-312.989,367.832z"/>
		<polygon points="-326.96,234.98 -298.478,273.121 -343.885,257.051 -354.204,249.432 -338.778,224.662 		"/>
		<polygon points="-153.989,406.418 -172.989,398.189 -172.989,393.455 -172.989,390.432 -172.989,381.072 -172.989,373.555 
			-172.989,372.404 -172.989,359.986 -160.989,365.277 -160.989,344.113 -166.989,340.588 -166.989,340.398 -172.989,338.635 
			-172.989,337.594 -172.989,323.426 -172.989,323.328 -172.989,305.396 -188.989,296.381 -188.989,314.318 -188.989,314.412 
			-188.989,328.58 -188.989,329.506 -202.989,323.627 -202.989,344.791 -188.989,350.666 -188.989,350.98 -188.989,363.391 
			-188.989,364.541 -188.989,372.061 -188.989,381.418 -188.989,384.445 -188.989,388.559 -207.989,379.742 -207.989,399.68 
			-207.989,400.906 -207.989,400.988 -176.459,416.73 -176.459,416.73 -157.879,425.982 -158.022,425.99 -154.751,427.631 
			-154.387,427.576 -153.989,427.582 		"/>
	</g>
	<polygon points="-361.922,139.475 -379.989,146.304 -379.989,139.475 -380.989,139.475 -380.989,81.475 -371.905,81.475 
		-355.989,73.997 -355.989,64.802 -494.989,129.724 -494.989,137.151 -392.989,91.881 -392.989,100.213 -494.989,146.75 
		-494.989,154.18 -392.989,108.912 -392.989,117.242 -494.989,163.776 -494.989,171.207 -392.989,125.937 -392.989,135.506 
		-494.989,182.042 -494.989,189.473 -392.989,144.202 -392.989,151.475 -393.948,151.475 -494.989,200.309 -494.989,207.736 
		-355.989,144.583 -355.989,139.475 	"/>
	<g>
		<polygon points="-494.989,225.072 -392.989,179.805 -392.989,171.106 -494.989,217.646 		"/>
		<polygon points="-494.989,277.395 -392.989,232.123 -392.989,223.428 -494.989,269.963 		"/>
		<polygon points="-392.989,205.162 -494.989,251.699 -494.989,259.127 -392.989,213.857 		"/>
		<polygon points="-392.989,241.691 -494.989,288.23 -494.989,295.66 -392.989,250.389 		"/>
		<polygon points="-494.989,242.104 -392.989,196.83 -392.989,188.133 -494.989,234.672 		"/>
	</g>
	<g>
		<polygon points="-494.989,309.283 -392.989,264.014 -392.989,255.314 -494.989,301.854 		"/>
		<polygon points="-494.989,361.604 -392.989,316.33 -392.989,307.633 -494.989,354.168 		"/>
		<polygon points="-392.989,289.367 -494.989,335.906 -494.989,343.336 -392.989,298.064 		"/>
		<polygon points="-392.989,325.898 -494.989,372.438 -494.989,379.867 -392.989,334.596 		"/>
		<polygon points="-494.989,326.309 -392.989,281.037 -392.989,272.342 -494.989,318.879 		"/>
	</g>
	<polygon points="-288.457,281.824 -309.477,291.52 -351.574,258.246 -329.662,239.598 	"/>
</g>
<g>
	<g>
		<path fill="#FFFFFF" d="M-700.352,114.575V228.4l110,53.66V169.86L-700.352,114.575z M-600.352,267.184l-91-44.939v-74.021
			l19,8.984v6.082v6.698v3.458v7.436v6.185v2.722v1.254v13.615v2.723l13,8.297v-17.344v-2.722v-0.81v-5.627v-7.183v-0.809v-2.904
			v-6.446v-9.896v-1v-16.317l25,10.895v15.949v1.248v9.646v6.695v3.463v7.433v6.183v2.727v1.25v13.619v2.723l14,8.298v-2.728
			v-13.621V217.4v-2.721v-6.438v-7.181v-3.71v-6.449v-8.55l20,8.983V267.184z"/>
		<path fill="#FFFFFF" d="M-742.352,56.94V40.546l-31,14.637v14.415l-37,18.493v78.359l37-19.052v20.556l31-14.205v-18.307
			l42-20.643V36.905L-742.352,56.94z M-773.352,107.49v1.491v19.512l-20,9.904v-19.512v-1.192V98.182l20-10.204V107.49z
			 M-724.352,86.218v19.512l-18,9.902V96.12v-1.192V75.415l18-10.203v19.513V86.218z"/>
		<polygon fill="#FFFFFF" points="-810.352,173.188 -810.352,209.531 -773.352,229.65 -773.352,251.497 -742.352,260.264 
			-742.352,240.473 -701.352,261.848 -701.352,228.475 		"/>
		<polygon fill="#FFFFFF" points="-773.352,147.628 -773.352,158.046 -773.352,162.042 -773.352,180.425 -773.352,199.934 
			-773.352,201.428 -773.352,220.939 -773.352,239.845 -773.352,250.921 -773.352,260.4 -742.352,246.193 -742.352,239.775 
			-742.352,227.889 -742.352,208.079 -742.352,188.565 -742.352,187.374 -742.352,167.859 -742.352,149.386 -742.352,143.187 
			-742.352,132.993 		"/>
		<path fill="#FFFFFF" d="M-649.177,299.628"/>
		<polygon fill="#FFFFFF" points="-756.707,233.271 -756.141,233.271 -771.764,227.208 -810.352,251.027 -810.352,285.595 
			-758.528,255.564 		"/>
		<polygon fill="#FFFFFF" points="-810.352,431.718 -828.352,424.29 -828.352,409.43 -810.352,416.857 		"/>
		<polygon fill="#FFFFFF" points="-827.352,388.374 -842.352,380.945 -842.352,366.087 -827.352,373.518 		"/>
		<polygon fill="#FFFFFF" points="-565.352,200.15 -580.352,192.721 -580.352,177.858 -565.352,185.292 		"/>
		<polygon fill="#FFFFFF" points="-578.352,156.81 -595.352,149.38 -595.352,134.52 -578.352,141.948 		"/>
		<g>
			<polygon fill="#FFFFFF" points="-660.352,295.624 -679.352,304.439 -679.352,283.277 -658.352,272.7 -658.352,272.848 
				-637.352,264.027 -637.352,285.191 -660.352,295.771 			"/>
			<polygon fill="#FFFFFF" points="-684.352,341.592 -684.352,320.173 -664.352,309.466 -664.352,309.538 -651.352,303.656 
				-651.352,303.807 -630.352,294.988 -630.352,316.152 -649.352,324.38 -649.352,329.661 -649.352,339.021 -649.352,346.54 
				-649.352,347.688 -649.352,364.473 -649.352,364.568 -649.352,382.499 -668.352,391.514 -668.352,373.581 -668.352,373.484 
				-668.352,356.702 -668.352,355.555 -668.352,348.034 -668.352,338.671 -668.352,333.264 			"/>
			<polygon fill="#FFFFFF" points="-674.352,348.01 -674.352,357.917 -674.352,358.592 -674.352,368.499 -686.352,373.788 
				-686.352,363.882 -686.352,363.208 -686.352,353.3 			"/>
			<polygon fill="#FFFFFF" points="-630.352,339.344 -630.352,340.016 -630.352,349.923 -641.352,355.212 -641.352,345.307 
				-641.352,344.632 -641.352,334.727 -630.352,329.438 			"/>
		</g>
		<g>
			<polygon fill="#FFFFFF" points="-785.352,359.087 -783.352,360.917 -783.352,352.693 -785.352,350.882 			"/>
			<path fill="#FFFFFF" d="M-810.352,285.876v113.826l55,27.131v-8.504v-39.578v-16.147v-1.188v-47.584L-810.352,285.876z
				 M-758.352,391.958v0.722v6.491v2.539v0.256l-20-9.065v3.356v2.554v0.063v11.145l-15-6.877v-11.147v-0.55v-2.063v-3.879
				l-16-9.069v-0.529v-0.555v-9.183l-0.432,0.039l-0.513-0.171l16.943,9.154v-2.039v-6.059v-0.715l-14-6.047v-0.523v-0.561v-9.182
				l1.664,0.041l0.396-0.172l7.94,4.271v-8.158l-4-1.813v-0.09l-7-3.627v-0.528v-0.556v-9.182l0.928,0.041l0.548-0.172l15.524,7.936
				v-4.399v-4.662v-0.152v-3.848l-6-2.414v-0.051l-1-1.206v-9.646l7,3.615v-0.213v-1.721v-8.318v-2.345l13,6.884v3.055v8.32v0.598
				l9,3.623v9.664l-9-3.621v0.649v0.495v3.354v0.645v4.177v4.842l10,4.271v0.053l9,3.662v0.209v0.72v6.492v2.538v0.255l-14-6.046
				v8.271l9,3.661v0.207v0.722v6.491v2.535v0.261l-14-6.048v0.341v6.547v1.992l6,3.051v0.09l14,6.104L-758.352,391.958
				L-758.352,391.958z"/>
		</g>
		<path fill="#FFFFFF" d="M-714.352,292.249v0.06l-10,5.432v0.09l-16,8.146v0.086l-15,8.147v2.746v15.099v0.873v2.743v5.99v9.11
			v7.357v2.246v14.227v2.246v11.479v4.992v11.479v2.248v0.498v15.973v2.747l16-9.095v-2.746v-15.699v-0.771v-1.978v-11.748v-4.725
			v-2.68l4.564-2.102l14.52,15.465l-10.617,27.838l14.329-6.799l4.499-12.373l3.779,4.075l13.733-6.801l-11.864-12.86l7.751-21.451
			l-12.922,6.397l-2.564,6.662l-6.396-7.017l4.188-2.098v0.104l18-9.091v-18.45l-18,8.823v0.062l-9,5.431v0.014l-5,1.359v0.063
			l-9,4.07v-6.861v-1.977v-7.634v-8.84v-6.256v-2.588l15-7.693v0.156l10-5.595v0.104v1.372v7.36v3.617v4.121v10.979l20-9.09v-10.979
			v-4.12v-3.35v-7.631v-1.371v-1.979v-4.119v-10.979v-1.373L-714.352,292.249z M-730.352,372.628v0.039l-4.097,2.047
			L-730.352,372.628z"/>
		<polygon fill="#FFFFFF" points="-744.323,239.775 -715.841,277.917 -761.247,261.848 -771.567,254.227 -756.141,229.458 		"/>
		<polygon fill="#FFFFFF" points="-571.352,411.214 -590.352,402.986 -590.352,398.251 -590.352,395.229 -590.352,385.868 
			-590.352,378.352 -590.352,377.2 -590.352,364.782 -578.352,370.073 -578.352,348.909 -584.352,345.384 -584.352,345.193 
			-590.352,343.432 -590.352,342.391 -590.352,328.223 -590.352,328.124 -590.352,310.193 -606.352,301.178 -606.352,319.114 
			-606.352,319.208 -606.352,333.376 -606.352,334.302 -620.352,328.423 -620.352,349.587 -606.352,355.462 -606.352,355.777 
			-606.352,368.188 -606.352,369.337 -606.352,376.855 -606.352,386.214 -606.352,389.241 -606.352,393.354 -625.352,384.538 
			-625.352,404.477 -625.352,405.702 -625.352,405.784 -593.822,421.525 -593.822,421.525 -575.241,430.779 -575.385,430.786 
			-572.114,432.427 -571.75,432.372 -571.352,432.378 		"/>
	</g>
	<polygon fill="#FFFFFF" points="-779.284,144.271 -797.352,151.1 -797.352,144.271 -798.352,144.271 -798.352,86.271 
		-789.268,86.271 -773.352,78.792 -773.352,69.599 -912.352,134.52 -912.352,141.948 -810.352,96.678 -810.352,105.01 
		-912.352,151.546 -912.352,158.976 -810.352,113.708 -810.352,122.038 -912.352,168.573 -912.352,176.003 -810.352,130.732 
		-810.352,140.303 -912.352,186.837 -912.352,194.269 -810.352,148.997 -810.352,156.271 -811.311,156.271 -912.352,205.104 
		-912.352,212.534 -773.352,149.38 -773.352,144.271 	"/>
	<g>
		<polygon fill="#FFFFFF" points="-912.352,229.87 -810.352,184.601 -810.352,175.903 -912.352,222.441 		"/>
		<polygon fill="#FFFFFF" points="-912.352,282.189 -810.352,236.919 -810.352,228.225 -912.352,274.76 		"/>
		<polygon fill="#FFFFFF" points="-810.352,209.958 -912.352,256.495 -912.352,263.923 -810.352,218.654 		"/>
		<polygon fill="#FFFFFF" points="-810.352,246.486 -912.352,293.025 -912.352,300.456 -810.352,255.186 		"/>
		<polygon fill="#FFFFFF" points="-912.352,246.898 -810.352,201.626 -810.352,192.93 -912.352,239.469 		"/>
	</g>
	<g>
		<polygon fill="#FFFFFF" points="-912.352,314.079 -810.352,268.809 -810.352,260.111 -912.352,306.648 		"/>
		<polygon fill="#FFFFFF" points="-912.352,366.398 -810.352,321.126 -810.352,312.429 -912.352,358.964 		"/>
		<polygon fill="#FFFFFF" points="-810.352,294.163 -912.352,340.702 -912.352,348.132 -810.352,302.859 		"/>
		<polygon fill="#FFFFFF" points="-810.352,330.695 -912.352,377.232 -912.352,384.663 -810.352,339.391 		"/>
		<polygon fill="#FFFFFF" points="-912.352,331.104 -810.352,285.833 -810.352,277.139 -912.352,323.676 		"/>
	</g>
	<polygon fill="#FFFFFF" points="-705.82,286.62 -726.84,296.314 -768.937,263.042 -747.025,244.393 	"/>
</g>
</svg>
